<svg width="1419" height="402" viewBox="0 0 1419 402" fill="none" xmlns="http://www.w3.org/2000/svg">
<rect y="287" width="1419" height="115" fill="#6C5FFE"/>
<path fill-rule="evenodd" clip-rule="evenodd" d="M0 36L59.125 30C118.25 24 236.5 12 354.75 36C473 60 591.25 120 709.5 144C827.75 168 946 156 1064.25 126C1182.5 96 1300.75 48 1359.88 24L1419 0V288H1359.88C1300.75 288 1182.5 288 1064.25 288C946 288 827.75 288 709.5 288C591.25 288 473 288 354.75 288C236.5 288 118.25 288 59.125 288H0V36Z" fill="#6C5FFE"/>
</svg>
